<svg width="19" height="19" viewBox="0 0 19 19" fill="none" xmlns="http://www.w3.org/2000/svg">
<path d="M15.3929 2H9.5H3.60714C2.71953 2 2 2.71852 2 3.60489V15.3741C2 16.2605 2.71953 16.979 3.60714 16.979H15.3929C16.2805 16.979 17 16.2605 17 15.3741V3.60489C17 2.71852 16.2805 2 15.3929 2ZM15.3929 15.3741H3.60714V3.60489H9.5H15.3929V15.3741Z" fill="#333333"/>
<path d="M16.9643 0L2.03571 0.00199682C0.911406 0.00199682 0 0.913307 0 2.0375V16.9645C0 18.0887 0.911406 19 2.03571 19H16.9643C18.0886 19 19 18.0887 19 16.9645L19 2.0355C19 0.91131 18.0886 0 16.9643 0ZM16.9643 15.4C16.9643 16.28 16.28 16.9645 15.4 16.9645C14.8 16.9645 4.2 16.9645 3.6 16.9645C2.72 16.9645 2.03571 16.28 2.03571 15.4C2.03571 14.8 2.03571 4.2 2.03571 3.6C2.03571 2.72 2.72 2.0355 3.6 2.0355C4.2 2.0355 14.8 2.0335 15.4 2.0355C16.28 2.0375 16.9643 2.72 16.9643 3.6C16.9643 4.2 16.9643 14.8 16.9643 15.4Z" fill="black"/>
</svg>
